<?xml version="1.0" encoding="UTF-8" standalone="no"?>
<!DOCTYPE svg PUBLIC "-//W3C//DTD SVG 1.1//EN" "http://www.w3.org/Graphics/SVG/1.1/DTD/svg11.dtd">
<svg width="100%" height="100%" viewBox="0 0 4096 1024" version="1.1" xmlns="http://www.w3.org/2000/svg" xmlns:xlink="http://www.w3.org/1999/xlink" xml:space="preserve" xmlns:serif="http://www.serif.com/" style="fill-rule:evenodd;clip-rule:evenodd;stroke-linecap:round;stroke-linejoin:bevel;">
    <g transform="matrix(2.59609,0,0,2.59609,0,0)">
        <g id="gopher" transform="matrix(1,0,0,1,-26.467,-49.3268)">
            <g id="path4183" transform="matrix(0.999875,0.0158238,-0.0158238,0.999875,0,0)">
                <ellipse cx="82.191" cy="253.405" rx="17.173" ry="15.96" style="fill:rgb(142,212,253);stroke:black;stroke-width:4px;"/>
            </g>
            <g id="ellipse4185" transform="matrix(0.832637,0.55382,-0.55382,0.832637,0,0)">
                <ellipse cx="423.257" cy="21.394" rx="17.173" ry="15.96" style="fill:rgb(142,212,253);stroke:black;stroke-width:4px;"/>
            </g>
            <path id="path4187" d="M108.563,181.907C103.797,151.119 104.502,133.85 113.428,119.236C127.119,96.823 165.662,82.787 201.266,80.117C236.87,77.448 286.072,86.971 300.662,96.042C324.673,110.97 328.829,129.221 328.856,153.064C328.866,161.953 325.947,209.189 325.947,209.189C325.947,209.189 193.864,256.401 191.036,256.356C188.208,256.311 110.153,183.548 110.153,183.548L108.563,181.907Z" style="fill:rgb(142,212,254);stroke:black;stroke-width:4px;stroke-linecap:butt;stroke-linejoin:miter;"/>
            <path id="path4189" d="M113.774,133.496C102.077,119.004 99.554,103.124 102.798,88.222C105.075,77.765 111.703,74.441 118.344,74.568C129.431,74.779 137.573,84.517 149.056,100.109" style="fill:rgb(142,212,254);stroke:black;stroke-width:4.8px;stroke-linejoin:miter;"/>
            <path id="path4191" d="M275.242,93.619C287.805,73.76 300.85,63.59 316.007,66.332C327.107,68.34 328.807,82.031 324.554,94.145C319.485,108.588 313.354,117.124 312.854,117.249" style="fill:rgb(142,212,254);stroke:black;stroke-width:4.8px;stroke-linejoin:miter;"/>
            <path id="path4201" d="M290.717,111.532C291.264,113.112 300.937,115.765 303.101,114.442C306.267,112.507 314.748,91.892 313.656,88.463C310.598,78.857 290.363,110.508 290.717,111.532Z" style="stroke:black;stroke-width:0.8px;stroke-linecap:butt;stroke-linejoin:miter;"/>
            <path id="path4212" d="M137.403,123.855C136.807,125.418 127.467,126.259 124.933,126.373C119.885,126.598 113.504,107.062 115.362,102.904C119.476,93.7 137.789,122.843 137.403,123.855Z" style="stroke:black;stroke-width:0.8px;stroke-linecap:butt;stroke-linejoin:miter;"/>
            <g id="circle4216" transform="matrix(0.999875,0.0158238,0.0158238,-0.999875,0,0)">
                <circle cx="270.729" cy="-158.65" r="38.891" style="fill:white;stroke:black;stroke-width:4.8px;"/>
            </g>
            <g id="circle4218" transform="matrix(0.999875,0.0158238,0.0158238,-0.999875,0,0)">
                <circle cx="169.916" cy="-160.67" r="38.891" style="fill:white;stroke:black;stroke-width:4.8px;"/>
            </g>
            <path id="path4224" d="M206.721,206.849C206.753,211.588 210.432,221.658 210.432,221.658L224.084,221.516C224.084,221.516 227.74,212.903 227.675,210.22C227.611,207.538 226.885,206.275 226.885,206.275L206.721,206.849Z" style="fill:white;stroke:black;stroke-width:3.2px;stroke-linecap:butt;stroke-linejoin:miter;"/>
            <path id="path4222" d="M194.954,202.716C188.819,214.956 203.431,210.639 215.62,209.593C225.268,208.766 239.45,215.435 239.306,205.476C239.057,188.265 202.822,187.018 194.954,202.716Z" style="fill:rgb(211,183,141);stroke:black;stroke-width:3.2px;stroke-linecap:butt;stroke-linejoin:miter;"/>
            <g id="path4220" transform="matrix(0.999875,0.0158238,0.0158238,-0.999875,0,0)">
                <ellipse cx="219.643" cy="-189.957" rx="14.166" ry="8.11" style="stroke:black;stroke-width:2.4px;"/>
            </g>
            <g id="path4226" transform="matrix(0.999875,0.0158238,-0.0158238,0.999875,0,0)">
                <circle cx="172.805" cy="168.838" r="11.857" style="stroke:black;stroke-width:2.4px;"/>
            </g>
            <g id="circle4228" transform="matrix(0.999875,0.0158238,-0.0158238,0.999875,0,0)">
                <circle cx="265.376" cy="168.838" r="11.857" style="stroke:black;stroke-width:2.4px;"/>
            </g>
        </g>
        <g id="pages" transform="matrix(1,0,0,1,-26.467,-49.3268)">
            <path id="path4147" d="M91.712,169.064C138.436,171.5 200.66,199.144 216.366,219.015C240.019,192.645 293.02,168.432 319.883,160.064C336.027,160.496 345.89,162.722 359.748,168.92L344.199,212.539L252.892,276.344L179.118,279.563L73.098,225.795L62.2,192.175C68.613,183.758 80.034,176.384 91.712,169.064Z" style="fill:rgb(246,240,215);stroke:black;stroke-width:4px;stroke-linecap:butt;"/>
            <path id="path4156" d="M326.876,169.603C314.041,172.502 254.22,201.549 243.229,218.857" style="fill:none;stroke:black;stroke-opacity:0.29;stroke-width:0.8px;stroke-linecap:butt;stroke-linejoin:miter;"/>
            <path id="path4180" d="M104.672,180.982C117.772,182.228 180.796,203.447 193.894,219.22" style="fill:none;stroke:black;stroke-opacity:0.29;stroke-width:0.8px;stroke-linecap:butt;stroke-linejoin:miter;"/>
        </g>
    </g>
    <g id="cover" transform="matrix(2.59609,0,0,2.59609,-68.7108,-128.057)">
        <path id="path4152" d="M41.112,172.185C53.541,170.71 174.031,218.2 192.945,239.691C192.945,239.691 209.107,238.032 215.571,238.135C222.035,238.237 245.649,237.745 245.649,237.745C275.575,217.342 334.612,183.807 388.28,151.857C359.681,208.778 332.105,266.403 336.71,346.227L242.152,422.042C229.754,425.041 217.205,426.854 204.134,424.547C204.134,424.547 125.6,382.191 97.422,375.173C89.313,325.8 59.027,171.36 41.112,172.185Z" style="fill:rgb(149,100,228);stroke:black;stroke-width:8px;stroke-linecap:butt;"/>
        <path id="path4230" d="M193.722,241.505C200.957,286.568 198.309,375.977 203.389,425.11" style="fill:none;stroke:black;stroke-width:0.8px;stroke-linecap:butt;stroke-linejoin:miter;"/>
        <g id="back" transform="matrix(-0.0188188,-0.627283,0.627283,-0.0188188,-292.155,742.831)">
            <g transform="matrix(15.3565,0,0,15.3565,503,843)">
                <path d="M0.036,-0L0.036,-0.06L0.09,-0.06L0.09,-0.663L0.036,-0.663L0.036,-0.723L0.15,-0.723L0.448,-0.198L0.449,-0.198L0.449,-0.663L0.396,-0.663L0.396,-0.723L0.564,-0.723L0.564,-0.663L0.51,-0.663L0.51,-0L0.449,-0L0.152,-0.525L0.15,-0.525L0.15,-0.06L0.205,-0.06L0.205,-0L0.036,-0Z" style="fill-rule:nonzero;"/>
            </g>
            <g transform="matrix(15.3565,0,0,15.3565,512.215,843)">
                <path d="M0.407,-0.058C0.351,-0.011 0.294,0.012 0.236,0.012C0.186,0.012 0.146,-0.002 0.117,-0.03C0.087,-0.057 0.072,-0.095 0.072,-0.143C0.072,-0.205 0.095,-0.25 0.142,-0.278C0.188,-0.306 0.263,-0.319 0.366,-0.319L0.407,-0.319L0.407,-0.401C0.407,-0.455 0.374,-0.482 0.308,-0.482C0.274,-0.482 0.232,-0.472 0.182,-0.454L0.17,-0.392L0.11,-0.392L0.11,-0.497C0.184,-0.527 0.26,-0.542 0.338,-0.542C0.399,-0.542 0.442,-0.532 0.467,-0.511C0.491,-0.489 0.503,-0.452 0.503,-0.4L0.503,-0.06L0.57,-0.06L0.57,-0L0.417,-0L0.407,-0.058ZM0.407,-0.131L0.407,-0.259L0.381,-0.259C0.306,-0.259 0.253,-0.251 0.222,-0.234C0.19,-0.217 0.175,-0.185 0.175,-0.138C0.175,-0.081 0.205,-0.052 0.266,-0.052C0.313,-0.052 0.361,-0.078 0.407,-0.131Z" style="fill-rule:nonzero;"/>
            </g>
            <g transform="matrix(15.3565,0,0,15.3565,521.431,843)">
                <path d="M0.504,-0.03C0.45,-0.002 0.396,0.012 0.34,0.012C0.287,0.012 0.25,0 0.228,-0.024C0.205,-0.049 0.194,-0.089 0.194,-0.146L0.194,-0.452L0.058,-0.452L0.058,-0.518L0.194,-0.518L0.194,-0.655L0.29,-0.655L0.29,-0.518L0.498,-0.518L0.498,-0.452L0.29,-0.452L0.29,-0.189C0.29,-0.137 0.295,-0.103 0.306,-0.086C0.316,-0.069 0.337,-0.06 0.368,-0.06C0.402,-0.06 0.448,-0.073 0.504,-0.098L0.504,-0.03Z" style="fill-rule:nonzero;"/>
            </g>
            <g transform="matrix(15.3565,0,0,15.3565,530.646,843)">
                <path d="M0.358,-0.53L0.509,-0.53L0.509,-0.06L0.569,-0.06L0.569,-0L0.413,-0L0.413,-0.102C0.39,-0.068 0.368,-0.042 0.346,-0.025C0.314,-0 0.279,0.012 0.241,0.012C0.142,0.012 0.093,-0.051 0.093,-0.177L0.093,-0.47L0.033,-0.47L0.033,-0.53L0.19,-0.53L0.19,-0.186C0.19,-0.103 0.216,-0.061 0.27,-0.061C0.318,-0.061 0.366,-0.103 0.413,-0.187L0.413,-0.47L0.358,-0.47L0.358,-0.53Z" style="fill-rule:nonzero;"/>
            </g>
            <g transform="matrix(15.3565,0,0,15.3565,539.862,843)">
                <path d="M0.259,-0.343L0.259,-0.06L0.435,-0.06L0.435,-0L0.041,-0L0.041,-0.06L0.163,-0.06L0.163,-0.47L0.036,-0.47L0.036,-0.53L0.259,-0.53L0.259,-0.427C0.283,-0.462 0.306,-0.488 0.328,-0.505C0.359,-0.53 0.393,-0.542 0.429,-0.542C0.467,-0.542 0.504,-0.531 0.54,-0.509L0.54,-0.364L0.479,-0.364L0.47,-0.44C0.451,-0.452 0.432,-0.458 0.412,-0.458C0.352,-0.458 0.301,-0.42 0.259,-0.343Z" style="fill-rule:nonzero;"/>
            </g>
            <g transform="matrix(15.3565,0,0,15.3565,549.077,843)">
                <path d="M0.407,-0.058C0.351,-0.011 0.294,0.012 0.236,0.012C0.186,0.012 0.146,-0.002 0.117,-0.03C0.087,-0.057 0.072,-0.095 0.072,-0.143C0.072,-0.205 0.095,-0.25 0.142,-0.278C0.188,-0.306 0.263,-0.319 0.366,-0.319L0.407,-0.319L0.407,-0.401C0.407,-0.455 0.374,-0.482 0.308,-0.482C0.274,-0.482 0.232,-0.472 0.182,-0.454L0.17,-0.392L0.11,-0.392L0.11,-0.497C0.184,-0.527 0.26,-0.542 0.338,-0.542C0.399,-0.542 0.442,-0.532 0.467,-0.511C0.491,-0.489 0.503,-0.452 0.503,-0.4L0.503,-0.06L0.57,-0.06L0.57,-0L0.417,-0L0.407,-0.058ZM0.407,-0.131L0.407,-0.259L0.381,-0.259C0.306,-0.259 0.253,-0.251 0.222,-0.234C0.19,-0.217 0.175,-0.185 0.175,-0.138C0.175,-0.081 0.205,-0.052 0.266,-0.052C0.313,-0.052 0.361,-0.078 0.407,-0.131Z" style="fill-rule:nonzero;"/>
            </g>
            <g transform="matrix(15.3565,0,0,15.3565,558.292,843)">
                <path d="M0.544,-0.03C0.49,-0.002 0.436,0.012 0.38,0.012C0.35,0.012 0.325,0.009 0.305,0.002C0.285,-0.005 0.269,-0.016 0.258,-0.031C0.246,-0.047 0.237,-0.066 0.232,-0.09C0.227,-0.114 0.225,-0.142 0.225,-0.175L0.225,-0.711L0.044,-0.711L0.044,-0.771L0.321,-0.771L0.321,-0.208C0.321,-0.177 0.322,-0.153 0.324,-0.133C0.326,-0.114 0.331,-0.099 0.338,-0.088C0.344,-0.078 0.354,-0.07 0.366,-0.066C0.379,-0.063 0.395,-0.061 0.416,-0.061C0.456,-0.061 0.499,-0.073 0.544,-0.098L0.544,-0.03Z" style="fill-rule:nonzero;"/>
            </g>
            <g transform="matrix(15.3565,0,0,15.3565,576.723,843)">
                <path d="M0.562,-0L0.042,-0L0.042,-0.06L0.163,-0.06L0.163,-0.663L0.042,-0.663L0.042,-0.723L0.374,-0.723L0.374,-0.663L0.259,-0.663L0.259,-0.064L0.502,-0.064L0.502,-0.232L0.562,-0.232L0.562,-0Z" style="fill-rule:nonzero;"/>
            </g>
            <g transform="matrix(15.3565,0,0,15.3565,585.939,843)">
                <path d="M0.407,-0.058C0.351,-0.011 0.294,0.012 0.236,0.012C0.186,0.012 0.146,-0.002 0.117,-0.03C0.087,-0.057 0.072,-0.095 0.072,-0.143C0.072,-0.205 0.095,-0.25 0.142,-0.278C0.188,-0.306 0.263,-0.319 0.366,-0.319L0.407,-0.319L0.407,-0.401C0.407,-0.455 0.374,-0.482 0.308,-0.482C0.274,-0.482 0.232,-0.472 0.182,-0.454L0.17,-0.392L0.11,-0.392L0.11,-0.497C0.184,-0.527 0.26,-0.542 0.338,-0.542C0.399,-0.542 0.442,-0.532 0.467,-0.511C0.491,-0.489 0.503,-0.452 0.503,-0.4L0.503,-0.06L0.57,-0.06L0.57,-0L0.417,-0L0.407,-0.058ZM0.407,-0.131L0.407,-0.259L0.381,-0.259C0.306,-0.259 0.253,-0.251 0.222,-0.234C0.19,-0.217 0.175,-0.185 0.175,-0.138C0.175,-0.081 0.205,-0.052 0.266,-0.052C0.313,-0.052 0.361,-0.078 0.407,-0.131Z" style="fill-rule:nonzero;"/>
            </g>
            <g transform="matrix(15.3565,0,0,15.3565,595.154,843)">
                <path d="M0.04,-0L0.04,-0.06L0.094,-0.06L0.094,-0.47L0.035,-0.47L0.035,-0.53L0.19,-0.53L0.19,-0.428C0.213,-0.462 0.235,-0.488 0.257,-0.505C0.289,-0.53 0.324,-0.542 0.362,-0.542C0.46,-0.542 0.509,-0.479 0.509,-0.353L0.509,-0.06L0.568,-0.06L0.568,-0L0.413,-0L0.413,-0.344C0.413,-0.428 0.387,-0.47 0.333,-0.47C0.285,-0.47 0.237,-0.428 0.19,-0.344L0.19,-0.06L0.239,-0.06L0.239,-0L0.04,-0Z" style="fill-rule:nonzero;"/>
            </g>
            <g transform="matrix(15.3565,0,0,15.3565,604.369,843)">
                <path d="M0.51,-0.47L0.51,-0.076C0.51,-0.053 0.509,-0.03 0.509,-0.008C0.508,0.015 0.505,0.037 0.5,0.058C0.496,0.078 0.489,0.098 0.479,0.116C0.47,0.134 0.457,0.149 0.44,0.162C0.423,0.176 0.401,0.186 0.375,0.194C0.349,0.201 0.317,0.205 0.279,0.205C0.251,0.205 0.221,0.203 0.188,0.198C0.155,0.194 0.122,0.185 0.088,0.172L0.088,0.052L0.148,0.052L0.161,0.118C0.168,0.121 0.176,0.125 0.185,0.128C0.195,0.131 0.204,0.134 0.215,0.136C0.225,0.139 0.236,0.141 0.247,0.142C0.258,0.144 0.269,0.145 0.28,0.145C0.302,0.145 0.321,0.142 0.336,0.137C0.351,0.132 0.363,0.125 0.373,0.116C0.383,0.107 0.39,0.096 0.396,0.084C0.401,0.072 0.405,0.058 0.408,0.043C0.41,0.028 0.412,0.013 0.412,-0.004C0.413,-0.021 0.413,-0.038 0.413,-0.055L0.413,-0.152C0.388,-0.116 0.365,-0.088 0.342,-0.071C0.309,-0.045 0.273,-0.032 0.234,-0.032C0.181,-0.032 0.137,-0.055 0.104,-0.102C0.071,-0.148 0.054,-0.203 0.054,-0.268C0.054,-0.308 0.06,-0.343 0.071,-0.375C0.081,-0.406 0.098,-0.435 0.12,-0.462C0.164,-0.515 0.224,-0.542 0.302,-0.542C0.324,-0.542 0.344,-0.541 0.361,-0.539C0.378,-0.536 0.396,-0.534 0.413,-0.53L0.568,-0.53L0.568,-0.47L0.51,-0.47ZM0.413,-0.458C0.391,-0.462 0.371,-0.465 0.354,-0.467C0.336,-0.469 0.321,-0.47 0.309,-0.47C0.255,-0.47 0.216,-0.452 0.192,-0.417C0.18,-0.4 0.171,-0.38 0.166,-0.356C0.16,-0.333 0.157,-0.306 0.157,-0.273C0.157,-0.165 0.192,-0.11 0.261,-0.11C0.315,-0.11 0.365,-0.148 0.413,-0.225L0.413,-0.458Z" style="fill-rule:nonzero;"/>
            </g>
            <g transform="matrix(15.3565,0,0,15.3565,613.585,843)">
                <path d="M0.358,-0.53L0.509,-0.53L0.509,-0.06L0.569,-0.06L0.569,-0L0.413,-0L0.413,-0.102C0.39,-0.068 0.368,-0.042 0.346,-0.025C0.314,-0 0.279,0.012 0.241,0.012C0.142,0.012 0.093,-0.051 0.093,-0.177L0.093,-0.47L0.033,-0.47L0.033,-0.53L0.19,-0.53L0.19,-0.186C0.19,-0.103 0.216,-0.061 0.27,-0.061C0.318,-0.061 0.366,-0.103 0.413,-0.187L0.413,-0.47L0.358,-0.47L0.358,-0.53Z" style="fill-rule:nonzero;"/>
            </g>
            <g transform="matrix(15.3565,0,0,15.3565,622.8,843)">
                <path d="M0.407,-0.058C0.351,-0.011 0.294,0.012 0.236,0.012C0.186,0.012 0.146,-0.002 0.117,-0.03C0.087,-0.057 0.072,-0.095 0.072,-0.143C0.072,-0.205 0.095,-0.25 0.142,-0.278C0.188,-0.306 0.263,-0.319 0.366,-0.319L0.407,-0.319L0.407,-0.401C0.407,-0.455 0.374,-0.482 0.308,-0.482C0.274,-0.482 0.232,-0.472 0.182,-0.454L0.17,-0.392L0.11,-0.392L0.11,-0.497C0.184,-0.527 0.26,-0.542 0.338,-0.542C0.399,-0.542 0.442,-0.532 0.467,-0.511C0.491,-0.489 0.503,-0.452 0.503,-0.4L0.503,-0.06L0.57,-0.06L0.57,-0L0.417,-0L0.407,-0.058ZM0.407,-0.131L0.407,-0.259L0.381,-0.259C0.306,-0.259 0.253,-0.251 0.222,-0.234C0.19,-0.217 0.175,-0.185 0.175,-0.138C0.175,-0.081 0.205,-0.052 0.266,-0.052C0.313,-0.052 0.361,-0.078 0.407,-0.131Z" style="fill-rule:nonzero;"/>
            </g>
            <g transform="matrix(15.3565,0,0,15.3565,632.016,843)">
                <path d="M0.51,-0.47L0.51,-0.076C0.51,-0.053 0.509,-0.03 0.509,-0.008C0.508,0.015 0.505,0.037 0.5,0.058C0.496,0.078 0.489,0.098 0.479,0.116C0.47,0.134 0.457,0.149 0.44,0.162C0.423,0.176 0.401,0.186 0.375,0.194C0.349,0.201 0.317,0.205 0.279,0.205C0.251,0.205 0.221,0.203 0.188,0.198C0.155,0.194 0.122,0.185 0.088,0.172L0.088,0.052L0.148,0.052L0.161,0.118C0.168,0.121 0.176,0.125 0.185,0.128C0.195,0.131 0.204,0.134 0.215,0.136C0.225,0.139 0.236,0.141 0.247,0.142C0.258,0.144 0.269,0.145 0.28,0.145C0.302,0.145 0.321,0.142 0.336,0.137C0.351,0.132 0.363,0.125 0.373,0.116C0.383,0.107 0.39,0.096 0.396,0.084C0.401,0.072 0.405,0.058 0.408,0.043C0.41,0.028 0.412,0.013 0.412,-0.004C0.413,-0.021 0.413,-0.038 0.413,-0.055L0.413,-0.152C0.388,-0.116 0.365,-0.088 0.342,-0.071C0.309,-0.045 0.273,-0.032 0.234,-0.032C0.181,-0.032 0.137,-0.055 0.104,-0.102C0.071,-0.148 0.054,-0.203 0.054,-0.268C0.054,-0.308 0.06,-0.343 0.071,-0.375C0.081,-0.406 0.098,-0.435 0.12,-0.462C0.164,-0.515 0.224,-0.542 0.302,-0.542C0.324,-0.542 0.344,-0.541 0.361,-0.539C0.378,-0.536 0.396,-0.534 0.413,-0.53L0.568,-0.53L0.568,-0.47L0.51,-0.47ZM0.413,-0.458C0.391,-0.462 0.371,-0.465 0.354,-0.467C0.336,-0.469 0.321,-0.47 0.309,-0.47C0.255,-0.47 0.216,-0.452 0.192,-0.417C0.18,-0.4 0.171,-0.38 0.166,-0.356C0.16,-0.333 0.157,-0.306 0.157,-0.273C0.157,-0.165 0.192,-0.11 0.261,-0.11C0.315,-0.11 0.365,-0.148 0.413,-0.225L0.413,-0.458Z" style="fill-rule:nonzero;"/>
            </g>
            <g transform="matrix(15.3565,0,0,15.3565,641.231,843)">
                <path d="M0.54,-0.247L0.163,-0.247C0.168,-0.203 0.174,-0.171 0.183,-0.152C0.213,-0.085 0.27,-0.052 0.355,-0.052C0.407,-0.052 0.464,-0.069 0.525,-0.103L0.525,-0.03C0.468,-0.002 0.407,0.012 0.342,0.012C0.258,0.012 0.19,-0.014 0.138,-0.065C0.086,-0.117 0.06,-0.185 0.06,-0.269C0.06,-0.351 0.084,-0.417 0.132,-0.467C0.18,-0.517 0.243,-0.542 0.322,-0.542C0.467,-0.542 0.54,-0.454 0.54,-0.277L0.54,-0.247ZM0.164,-0.307L0.437,-0.307L0.437,-0.33C0.437,-0.431 0.396,-0.482 0.315,-0.482C0.265,-0.482 0.227,-0.462 0.199,-0.422C0.18,-0.394 0.168,-0.356 0.164,-0.307Z" style="fill-rule:nonzero;"/>
            </g>
            <g transform="matrix(15.3565,0,0,15.3565,659.662,843)">
                <path d="M0.235,-0.292L0.235,-0.06L0.374,-0.06L0.374,-0L0.042,-0L0.042,-0.06L0.138,-0.06L0.138,-0.663L0.042,-0.663L0.042,-0.723L0.365,-0.723C0.487,-0.723 0.549,-0.664 0.549,-0.546C0.549,-0.468 0.526,-0.406 0.48,-0.36C0.435,-0.315 0.372,-0.292 0.292,-0.292L0.235,-0.292ZM0.235,-0.353L0.289,-0.353C0.394,-0.353 0.446,-0.412 0.446,-0.532C0.446,-0.619 0.409,-0.663 0.333,-0.663L0.235,-0.663L0.235,-0.353Z" style="fill-rule:nonzero;"/>
            </g>
            <g transform="matrix(15.3565,0,0,15.3565,668.877,843)">
                <path d="M0.259,-0.343L0.259,-0.06L0.435,-0.06L0.435,-0L0.041,-0L0.041,-0.06L0.163,-0.06L0.163,-0.47L0.036,-0.47L0.036,-0.53L0.259,-0.53L0.259,-0.427C0.283,-0.462 0.306,-0.488 0.328,-0.505C0.359,-0.53 0.393,-0.542 0.429,-0.542C0.467,-0.542 0.504,-0.531 0.54,-0.509L0.54,-0.364L0.479,-0.364L0.47,-0.44C0.451,-0.452 0.432,-0.458 0.412,-0.458C0.352,-0.458 0.301,-0.42 0.259,-0.343Z" style="fill-rule:nonzero;"/>
            </g>
            <g transform="matrix(15.3565,0,0,15.3565,678.093,843)">
                <path d="M0.3,-0.542C0.376,-0.542 0.436,-0.517 0.48,-0.468C0.524,-0.419 0.546,-0.352 0.546,-0.266C0.546,-0.178 0.524,-0.11 0.48,-0.062C0.436,-0.012 0.375,0.012 0.296,0.012C0.229,0.012 0.175,-0.008 0.133,-0.049C0.08,-0.099 0.054,-0.171 0.054,-0.265C0.054,-0.351 0.076,-0.419 0.12,-0.468C0.164,-0.517 0.224,-0.542 0.3,-0.542ZM0.3,-0.482C0.205,-0.482 0.158,-0.41 0.158,-0.266C0.158,-0.121 0.205,-0.048 0.3,-0.048C0.395,-0.048 0.442,-0.121 0.442,-0.266C0.442,-0.41 0.395,-0.482 0.3,-0.482Z" style="fill-rule:nonzero;"/>
            </g>
            <g transform="matrix(15.3565,0,0,15.3565,687.308,843)">
                <path d="M0.542,-0.022C0.489,0.001 0.425,0.012 0.35,0.012C0.257,0.012 0.185,-0.014 0.132,-0.065C0.08,-0.116 0.054,-0.185 0.054,-0.271C0.054,-0.356 0.079,-0.422 0.131,-0.47C0.182,-0.518 0.254,-0.542 0.348,-0.542C0.417,-0.542 0.48,-0.533 0.536,-0.516L0.536,-0.364L0.475,-0.364L0.458,-0.46C0.419,-0.475 0.38,-0.482 0.342,-0.482C0.285,-0.482 0.239,-0.463 0.206,-0.424C0.174,-0.386 0.159,-0.334 0.159,-0.27C0.159,-0.198 0.176,-0.144 0.211,-0.107C0.249,-0.07 0.302,-0.052 0.369,-0.052C0.423,-0.052 0.481,-0.065 0.542,-0.091L0.542,-0.022Z" style="fill-rule:nonzero;"/>
            </g>
            <g transform="matrix(15.3565,0,0,15.3565,696.524,843)">
                <path d="M0.54,-0.247L0.163,-0.247C0.168,-0.203 0.174,-0.171 0.183,-0.152C0.213,-0.085 0.27,-0.052 0.355,-0.052C0.407,-0.052 0.464,-0.069 0.525,-0.103L0.525,-0.03C0.468,-0.002 0.407,0.012 0.342,0.012C0.258,0.012 0.19,-0.014 0.138,-0.065C0.086,-0.117 0.06,-0.185 0.06,-0.269C0.06,-0.351 0.084,-0.417 0.132,-0.467C0.18,-0.517 0.243,-0.542 0.322,-0.542C0.467,-0.542 0.54,-0.454 0.54,-0.277L0.54,-0.247ZM0.164,-0.307L0.437,-0.307L0.437,-0.33C0.437,-0.431 0.396,-0.482 0.315,-0.482C0.265,-0.482 0.227,-0.462 0.199,-0.422C0.18,-0.394 0.168,-0.356 0.164,-0.307Z" style="fill-rule:nonzero;"/>
            </g>
            <g transform="matrix(15.3565,0,0,15.3565,705.739,843)">
                <path d="M0.084,-0.03L0.084,-0.175L0.145,-0.175L0.157,-0.085C0.221,-0.061 0.275,-0.048 0.319,-0.048C0.397,-0.048 0.436,-0.076 0.436,-0.13C0.436,-0.152 0.429,-0.168 0.416,-0.18C0.403,-0.192 0.38,-0.203 0.346,-0.211L0.247,-0.238C0.191,-0.252 0.15,-0.272 0.125,-0.295C0.1,-0.319 0.087,-0.349 0.087,-0.388C0.087,-0.491 0.158,-0.542 0.298,-0.542C0.37,-0.542 0.436,-0.531 0.495,-0.507L0.495,-0.368L0.435,-0.368L0.422,-0.456C0.387,-0.473 0.345,-0.482 0.298,-0.482C0.262,-0.482 0.234,-0.476 0.214,-0.465C0.191,-0.451 0.179,-0.431 0.179,-0.403C0.179,-0.367 0.213,-0.34 0.28,-0.322L0.378,-0.296C0.433,-0.282 0.472,-0.264 0.496,-0.242C0.52,-0.22 0.531,-0.19 0.531,-0.153C0.531,-0.102 0.511,-0.062 0.471,-0.032C0.431,-0.003 0.375,0.012 0.304,0.012C0.23,0.012 0.157,-0.002 0.084,-0.03Z" style="fill-rule:nonzero;"/>
            </g>
            <g transform="matrix(15.3565,0,0,15.3565,714.954,843)">
                <path d="M0.084,-0.03L0.084,-0.175L0.145,-0.175L0.157,-0.085C0.221,-0.061 0.275,-0.048 0.319,-0.048C0.397,-0.048 0.436,-0.076 0.436,-0.13C0.436,-0.152 0.429,-0.168 0.416,-0.18C0.403,-0.192 0.38,-0.203 0.346,-0.211L0.247,-0.238C0.191,-0.252 0.15,-0.272 0.125,-0.295C0.1,-0.319 0.087,-0.349 0.087,-0.388C0.087,-0.491 0.158,-0.542 0.298,-0.542C0.37,-0.542 0.436,-0.531 0.495,-0.507L0.495,-0.368L0.435,-0.368L0.422,-0.456C0.387,-0.473 0.345,-0.482 0.298,-0.482C0.262,-0.482 0.234,-0.476 0.214,-0.465C0.191,-0.451 0.179,-0.431 0.179,-0.403C0.179,-0.367 0.213,-0.34 0.28,-0.322L0.378,-0.296C0.433,-0.282 0.472,-0.264 0.496,-0.242C0.52,-0.22 0.531,-0.19 0.531,-0.153C0.531,-0.102 0.511,-0.062 0.471,-0.032C0.431,-0.003 0.375,0.012 0.304,0.012C0.23,0.012 0.157,-0.002 0.084,-0.03Z" style="fill-rule:nonzero;"/>
            </g>
            <g transform="matrix(15.3565,0,0,15.3565,724.17,843)">
                <path d="M0.072,-0L0.072,-0.06L0.263,-0.06L0.263,-0.47L0.072,-0.47L0.072,-0.53L0.359,-0.53L0.359,-0.06L0.54,-0.06L0.54,-0L0.072,-0ZM0.248,-0.65L0.248,-0.771L0.366,-0.771L0.366,-0.65L0.248,-0.65Z" style="fill-rule:nonzero;"/>
            </g>
            <g transform="matrix(15.3565,0,0,15.3565,733.385,843)">
                <path d="M0.04,-0L0.04,-0.06L0.094,-0.06L0.094,-0.47L0.035,-0.47L0.035,-0.53L0.19,-0.53L0.19,-0.428C0.213,-0.462 0.235,-0.488 0.257,-0.505C0.289,-0.53 0.324,-0.542 0.362,-0.542C0.46,-0.542 0.509,-0.479 0.509,-0.353L0.509,-0.06L0.568,-0.06L0.568,-0L0.413,-0L0.413,-0.344C0.413,-0.428 0.387,-0.47 0.333,-0.47C0.285,-0.47 0.237,-0.428 0.19,-0.344L0.19,-0.06L0.239,-0.06L0.239,-0L0.04,-0Z" style="fill-rule:nonzero;"/>
            </g>
            <g transform="matrix(15.3565,0,0,15.3565,742.601,843)">
                <path d="M0.51,-0.47L0.51,-0.076C0.51,-0.053 0.509,-0.03 0.509,-0.008C0.508,0.015 0.505,0.037 0.5,0.058C0.496,0.078 0.489,0.098 0.479,0.116C0.47,0.134 0.457,0.149 0.44,0.162C0.423,0.176 0.401,0.186 0.375,0.194C0.349,0.201 0.317,0.205 0.279,0.205C0.251,0.205 0.221,0.203 0.188,0.198C0.155,0.194 0.122,0.185 0.088,0.172L0.088,0.052L0.148,0.052L0.161,0.118C0.168,0.121 0.176,0.125 0.185,0.128C0.195,0.131 0.204,0.134 0.215,0.136C0.225,0.139 0.236,0.141 0.247,0.142C0.258,0.144 0.269,0.145 0.28,0.145C0.302,0.145 0.321,0.142 0.336,0.137C0.351,0.132 0.363,0.125 0.373,0.116C0.383,0.107 0.39,0.096 0.396,0.084C0.401,0.072 0.405,0.058 0.408,0.043C0.41,0.028 0.412,0.013 0.412,-0.004C0.413,-0.021 0.413,-0.038 0.413,-0.055L0.413,-0.152C0.388,-0.116 0.365,-0.088 0.342,-0.071C0.309,-0.045 0.273,-0.032 0.234,-0.032C0.181,-0.032 0.137,-0.055 0.104,-0.102C0.071,-0.148 0.054,-0.203 0.054,-0.268C0.054,-0.308 0.06,-0.343 0.071,-0.375C0.081,-0.406 0.098,-0.435 0.12,-0.462C0.164,-0.515 0.224,-0.542 0.302,-0.542C0.324,-0.542 0.344,-0.541 0.361,-0.539C0.378,-0.536 0.396,-0.534 0.413,-0.53L0.568,-0.53L0.568,-0.47L0.51,-0.47ZM0.413,-0.458C0.391,-0.462 0.371,-0.465 0.354,-0.467C0.336,-0.469 0.321,-0.47 0.309,-0.47C0.255,-0.47 0.216,-0.452 0.192,-0.417C0.18,-0.4 0.171,-0.38 0.166,-0.356C0.16,-0.333 0.157,-0.306 0.157,-0.273C0.157,-0.165 0.192,-0.11 0.261,-0.11C0.315,-0.11 0.365,-0.148 0.413,-0.225L0.413,-0.458Z" style="fill-rule:nonzero;"/>
            </g>
        </g>
        <path id="path4232" d="M246.678,236.708C241.24,282.022 247.439,371.256 244.315,420.551" style="fill:none;stroke:black;stroke-width:0.8px;stroke-linecap:butt;stroke-linejoin:miter;"/>
        <g transform="matrix(0.532772,0,0,0.532772,-102.385,-80.1525)">
            <g id="title">
                <g>
                    <g transform="matrix(0.728903,0,0,1.44813,211.225,-293.184)">
                        <path d="M656.469,722L656.469,716.234L660.68,714.737L661.672,658.89L658.453,659.888L658.453,654.622L667.438,651.626L691.072,690.035L691.165,690.035L692.157,649.404L687.993,650.402L687.993,646.135L702.181,641.641L702.181,646.908L697.97,647.906L695.986,706.523L691.165,709.019L667.438,670.065L666.446,712.74L670.657,711.242L670.657,716.508L656.469,722Z" style="fill-rule:nonzero;"/>
                    </g>
                    <g transform="matrix(0.739312,0,0,1.33349,197.143,-242.227)">
                        <path d="M758.695,710.614L716.596,725.795L716.596,720.03L726.219,716.234L726.219,658.933L718.552,661.644L718.552,656.42L746.469,646.661L746.469,652.427L736.431,656.222L735.453,713.148L752.929,706.642L752.929,691.555L759.673,689.386L758.695,710.614Z" style="fill-rule:nonzero;"/>
                    </g>
                    <g transform="matrix(0.717672,0,0,1.41687,208.629,-321.944)">
                        <path d="M789.758,692.391L787.743,713.173L799.041,709.601L799.041,714.856L772.25,723.021L772.25,717.765L780.477,715.214C780.494,693.909 781.291,685.244 785.514,659.921L778.295,662.473L778.295,656.707L810.286,645.481C827.105,639.868 824.794,648.578 821.914,660.872C815.527,688.132 789.758,692.391 789.758,692.391ZM789.758,686.625C789.758,686.625 804.656,685.727 811.102,668.053C816.128,654.271 813.924,649.747 804.386,653.358L794.795,656.86C792.259,666.422 789.987,682.35 789.758,686.625Z" style="fill-rule:nonzero;"/>
                    </g>
                </g>
            </g>
        </g>
        <path id="rect4238" d="M81.957,210.237C91.848,212.589 101.778,214.727 111.097,220.203C116.181,235.289 120.448,260.31 124.444,281.793C114.507,277.924 103.162,273.166 97.314,272.465C93.453,250.504 89.066,229.052 81.957,210.237Z" style="fill-opacity:0.15;fill-rule:nonzero;"/>
        <path id="path4721" d="M97.386,288.808C107.276,291.161 166.635,314.727 175.954,320.203C174.998,337.494 179.231,362.734 182.729,383.222C172.793,379.352 115.162,354.595 109.314,353.894C105.453,331.932 104.494,307.624 97.386,288.808Z" style="fill-opacity:0.15;fill-rule:nonzero;"/>
    </g>
    <g id="dim" transform="matrix(8.09358,0,0,2.59609,0,0)">
        <rect x="0" y="0" width="379.56" height="394.439" style="fill:none;"/>
    </g>
</svg>
